<?xml version="1.0" encoding="UTF-8"?>
<svg width="53px" height="89px" viewBox="0 0 53 89" version="1.1" xmlns="http://www.w3.org/2000/svg" xmlns:xlink="http://www.w3.org/1999/xlink">
    <!-- Generator: Sketch 52.4 (67378) - http://www.bohemiancoding.com/sketch -->
    <title>Artboard</title>
    <desc>Created with Sketch.</desc>
    <g id="Artboard" stroke="none" stroke-width="1" fill="none" fill-rule="evenodd">
        <g id="spoon" transform="translate(4.000000, 6.000000)" fill="#000000" fill-rule="nonzero">
            <path d="M12,78.251 C9.016,78.251 6.576,76.006 6.461,73.204 C6.442,73.122 6.434,73.037 6.438,72.951 C4.91121458,63.2447529 4.26521458,55.8937333 4.5,50.8979412 C4.62649854,48.2062904 5.43185894,44.4755473 6.438,39.9661516 C6.8271131,38.2221964 7.4791131,35.3438126 8.394,31.331 C6.091,29.388 -4.555,19.43 2.848,7.107 C5.495,2.82 8.465,0.651 11.681,0.651 C17.08,0.651 20.942,6.836 21.103,7.099 C28.51,19.428 17.902,29.386 15.605,31.33 C11.650312,41.298987 9.78197865,48.6049875 10,53.2480016 C10.2142009,57.8096542 12.7308675,64.3106536 17.55,72.751 C17.571,72.83 17.58,72.912 17.58,72.997 C17.58,73.105 17.563,73.21 17.531,73.308 C17.363,76.062 14.946,78.251 12,78.251 Z M8.46367227,72.849 C8.47067227,72.897 8.47467227,72.947 8.47467227,72.997 C8.47467227,74.791 10.0636723,76.25 12.0176723,76.25 C13.9706723,76.25 15.5606723,74.791 15.5606723,72.997 C15.5606723,72.945 15.5646723,72.895 15.5726723,72.846 C11.0507613,64.2538634 8.68476132,57.7222663 8.47467227,53.2512087 C8.24698354,48.4055997 9.95631688,40.9621968 13.6026723,30.921 C13.5866723,30.591 13.7366723,30.275 13.9986723,30.076 C14.0316723,30.051 17.2816723,27.569 19.5446723,23.6 C22.5026723,18.41 22.4586723,13.208 19.4126723,8.138 C19.3846723,8.092 15.9756723,2.651 11.6996723,2.651 C9.22267227,2.651 6.82567227,4.501 4.57467227,8.148 C1.52467227,13.225 1.49767227,18.445 4.49967227,23.652 C6.78067227,27.608 10.0016723,30.05 10.0346723,30.075 C10.2996723,30.274 10.4496723,30.591 10.4336723,30.922 C7.68196376,40.8761077 6.19024023,48.3191773 5.95850169,53.2512087 C5.75246245,57.6362884 6.58751931,64.1688855 8.46367227,72.849 Z" id="Shape"></path>
        </g>
        <path d="M22.9585017,19 L22.0414983,20.1870572" id="Line-2" stroke="#000000" stroke-width="0.5" stroke-linecap="square" transform="translate(22.500000, 19.593529) scale(-1, 1) translate(-22.500000, -19.593529) "></path>
        <path d="M24.9585017,18 L23.5,19.5935286" id="Line-2" stroke="#000000" stroke-width="0.5" stroke-linecap="square" transform="translate(24.000000, 19.000000) scale(-1, 1) translate(-24.000000, -19.000000) "></path>
        <path d="M9.95850169,19 L9,20.1870572" id="Line-2" stroke="#000000" stroke-width="0.5" stroke-linecap="square"></path>
        <path d="M9,18.1472483 C9.82104612,18.4744427 10.3914644,18.6750927 10.711255,18.7491983 C11.0091664,18.8182339 11.2720814,18.8527517 11.5,18.8527517 C11.966857,18.8527517 12.5805497,18.7079242 13.3410783,18.4182692 C13.4801414,18.3653056 13.6997819,18.2749653 14,18.1472483" id="Line" stroke="#000000" fill="#000000" stroke-linecap="square"></path>
        <path d="M18,18.1472483 C19.0717622,18.6175839 19.9050955,18.8527517 20.5,18.8527517 C21.0949045,18.8527517 21.9282378,18.6175839 23,18.1472483" id="Line" stroke="#000000" stroke-linecap="square"></path>
        <path d="" id="Path-2" stroke="#979797"></path>
        <path d="" id="Path-3" stroke="#979797"></path>
        <path d="" id="Path-4" stroke="#979797"></path>
        <text id="z" font-family="Helvetica" font-size="5" font-weight="normal" fill="#000000">
            <tspan x="28" y="18">z</tspan>
        </text>
        <text id="z" font-family="Helvetica" font-size="6" font-weight="normal" fill="#000000">
            <tspan x="29" y="15">z</tspan>
        </text>
        <text id="z" transform="translate(33.138380, 9.067362) rotate(-2.000000) translate(-33.138380, -9.067362) " font-family="Helvetica" font-size="7" font-weight="normal" fill="#000000">
            <tspan x="31.1383796" y="11.0673623">z</tspan>
        </text>
        <text id="z" font-family="Helvetica" font-size="5" font-weight="normal" fill="#000000">
            <tspan x="28" y="18">z</tspan>
        </text>
        <text id="z" font-family="Helvetica" font-size="6" font-weight="normal" fill="#000000">
            <tspan x="29" y="15">z</tspan>
        </text>
        <text id="z" transform="translate(33.138380, 9.067362) rotate(-2.000000) translate(-33.138380, -9.067362) " font-family="Helvetica" font-size="7" font-weight="normal" fill="#000000">
            <tspan x="31.1383796" y="11.0673623">z</tspan>
        </text>
        <text id="z" font-family="Helvetica" font-size="5" font-weight="normal" fill="#000000">
            <tspan x="39" y="37">z</tspan>
        </text>
        <text id="z" font-family="Helvetica" font-size="6" font-weight="normal" fill="#000000">
            <tspan x="40" y="34">z</tspan>
        </text>
        <text id="z" transform="translate(44.138380, 28.067362) rotate(-2.000000) translate(-44.138380, -28.067362) " font-family="Helvetica" font-size="7" font-weight="normal" fill="#000000">
            <tspan x="42.1383796" y="30.0673623">z</tspan>
        </text>
        <text id="z" font-family="Helvetica" font-size="5" font-weight="normal" fill="#000000">
            <tspan x="39" y="37">z</tspan>
        </text>
        <text id="z" font-family="Helvetica" font-size="6" font-weight="normal" fill="#000000">
            <tspan x="40" y="34">z</tspan>
        </text>
        <text id="z" transform="translate(44.138380, 28.067362) rotate(-2.000000) translate(-44.138380, -28.067362) " font-family="Helvetica" font-size="7" font-weight="normal" fill="#000000">
            <tspan x="42.1383796" y="30.0673623">z</tspan>
        </text>
        <path d="" id="Path-2" stroke="#979797"></path>
        <path d="" id="Path-3" stroke="#979797"></path>
        <path d="" id="Path-4" stroke="#979797"></path>
        <g id="spoon" transform="translate(17.000000, 31.000000)" fill="#000000" fill-rule="nonzero">
            <path d="M11.019054,50 C8.21650653,50 5.92487924,48.5534794 5.81687222,46.748067 C5.79902758,46.695232 5.79151404,46.6404639 5.79527081,46.5850515 C4.3613269,40.3310263 3.75460918,35.5945446 3.97511766,32.3756065 C4.09392401,30.6412953 4.85031166,28.2374661 5.79527081,25.3319276 C6.16072253,24.2082451 6.7730754,22.3536163 7.63232941,19.7680412 C5.46937136,18.5161082 -4.5292615,12.0998711 2.42357328,4.15979381 C4.90961321,1.39755155 7.69901201,0 10.7194519,0 C15.7901469,0 19.4173045,3.98518041 19.5685144,4.15463918 C26.5251059,12.0985825 16.5621623,18.5148196 14.4048394,19.7673969 C10.69063,26.1907132 8.93590718,30.8981878 9.14067098,33.8898206 C9.34184662,36.8290297 11.7054786,41.0178181 16.2315669,46.4561856 C16.2512899,46.5070876 16.2597427,46.5599227 16.2597427,46.6146907 C16.2597427,46.6842784 16.2437764,46.751933 16.2137223,46.8150773 C16.0559381,48.5895619 13.7859122,50 11.019054,50 Z M7.69776502,46.5193299 C7.70433936,46.5502577 7.70809612,46.5824742 7.70809612,46.6146907 C7.70809612,47.7706186 9.20047144,48.7106959 11.0356517,48.7106959 C12.8698927,48.7106959 14.3632072,47.7706186 14.3632072,46.6146907 C14.3632072,46.5811856 14.366964,46.5489691 14.3744775,46.5173969 C10.1275371,40.9812264 7.90540998,36.7727232 7.70809612,33.891887 C7.4942528,30.7697163 9.09964417,25.9737093 12.5242702,19.503866 C12.5092431,19.2912371 12.6501219,19.0876289 12.89619,18.9594072 C12.9271834,18.943299 15.9795558,17.3440722 18.1049462,14.7867268 C20.8830747,11.4426546 20.8417503,8.09085052 17.9809729,4.82409794 C17.9546755,4.79445876 14.7529717,1.28865979 10.7369888,1.28865979 C8.41061137,1.28865979 6.15936932,2.4806701 4.04524922,4.83054124 C1.1807151,8.10180412 1.15535693,11.4652062 3.97480985,14.820232 C6.1171057,17.369201 9.14224156,18.9426546 9.17323488,18.9587629 C9.42212064,19.0869845 9.56299936,19.2912371 9.5479723,19.5045103 C6.96359102,25.9182395 5.56257694,30.7140318 5.34493007,33.891887 C5.15141976,36.717325 5.93569808,40.9264726 7.69776502,46.5193299 Z" id="Shape"></path>
        </g>
        <path d="M33.0812467,39 L34.8765837,40.8880756 L33.0812467,39 Z" id="Line-2" stroke="#000000" stroke-width="0.5" stroke-linecap="square"></path>
        <path d="M35,39 L36.3969972,40.1921699 L35,39 Z" id="Line-2" stroke="#000000" stroke-width="0.5" stroke-linecap="square"></path>
        <path d="M22,38.8620291 L20.4789152,40.2704266" id="Line-2" stroke="#000000" stroke-width="0.5" stroke-linecap="square"></path>
        <path d="M23.0414983,39.1259339 L22,40.5" id="Line-2" stroke="#000000" stroke-width="0.5" stroke-linecap="square"></path>
        <path d="M22,39.1101612 C22.7864229,39.3549458 23.3327869,39.5050585 23.639092,39.5604993 C23.9244406,39.6121471 24.1762686,39.6379709 24.394576,39.6379709 C24.8417457,39.6379709 25.4295593,39.5296208 26.1580167,39.3129206 C26.2912155,39.2732969 26.5015939,39.2057104 26.7891519,39.1101612" id="Line" stroke="#000000" fill="#000000" stroke-linecap="square"></path>
        <path d="M30,39.1101612 C31.0265664,39.4620343 31.8247584,39.6379709 32.394576,39.6379709 C32.9643935,39.6379709 33.7625855,39.4620343 34.7891519,39.1101612" id="Line" stroke="#000000" stroke-linecap="square"></path>
        <path d="" id="Path-2" stroke="#979797"></path>
        <path d="" id="Path-3" stroke="#979797"></path>
        <path d="" id="Path-4" stroke="#979797"></path>
        <path d="" id="Path-2" stroke="#979797"></path>
        <path d="" id="Path-3" stroke="#979797"></path>
        <path d="" id="Path-4" stroke="#979797"></path>
        <path d="M12,25 L21.5039525,25 C20.0680182,28.2697399 18.4840261,29.9046099 16.7519763,29.9046099 C15.0199264,29.9046099 13.4359343,28.2697399 12,25 Z" id="Path-7" fill="#000000"></path>
        <path d="M26,43 L32.5039525,43 C31.5212826,44.9364066 30.4372905,45.9046099 29.2519763,45.9046099 C28.066662,45.9046099 26.9826699,44.9364066 26,43 Z" id="Path-7" fill="#000000"></path>
    </g>
</svg>